<?xml version="1.0" encoding="utf-8"?>
<!-- Generator: Adobe Illustrator 28.3.0, SVG Export Plug-In . SVG Version: 6.00 Build 0)  -->
<svg version="1.1" id="Layer_1" xmlns="http://www.w3.org/2000/svg" xmlns:xlink="http://www.w3.org/1999/xlink" x="0px" y="0px"
	 viewBox="0 0 100 100" style="enable-background:new 0 0 100 100;" xml:space="preserve">
<style type="text/css">
	.st0{fill:#FFFFFF;stroke:#7BD66E;stroke-miterlimit:10;}
	.st1{fill:#FCFC81;stroke:#FCFC81;stroke-miterlimit:10;}
	.st2{fill:#7BD66E;stroke:#7BD66E;stroke-miterlimit:10;}
	.st3{fill:#FFFFFF;stroke:#FFFFFF;stroke-miterlimit:10;}
</style>
<g>
	<path class="st0" d="M76.66,39.91v47.62c0,3.09-2.5,5.59-5.59,5.59H31.05c-3.09,0-5.59-2.5-5.59-5.59V39.91"/>
	<polygon class="st1" points="30.93,19.35 28.16,23.69 31.44,27.67 26.46,26.38 23.69,30.73 23.37,25.59 18.38,24.3 23.17,22.41 
		22.85,17.27 26.14,21.24 	"/>
	<polygon class="st1" points="58.5,32.24 55.56,37.15 59.32,41.46 53.74,40.18 50.81,45.09 50.3,39.39 44.72,38.11 49.98,35.87 
		49.48,30.17 53.24,34.48 	"/>
	<polygon class="st1" points="51.88,59.99 46.77,65.68 50.61,72.29 43.62,69.2 38.52,74.89 39.3,67.29 32.31,64.2 39.78,62.59 
		40.57,54.99 44.4,61.6 	"/>
	<polygon class="st1" points="37.01,40.47 34.22,41.34 34.19,44.27 32.5,41.88 29.7,42.75 31.45,40.41 29.76,38.02 32.53,38.96 
		34.28,36.61 34.24,39.54 	"/>
	<polygon class="st1" points="68.53,52.47 66.16,54.39 67.25,57.24 64.7,55.58 62.33,57.5 63.12,54.55 60.56,52.9 63.6,52.73 
		64.39,49.79 65.48,52.63 	"/>
	<g>
		<path class="st2" d="M83.16,39.21L27.73,7.55l0,0c1.13-1.98,5.46,0.75,9.46,3.03l39.77,22.71C80.95,35.57,84.29,37.23,83.16,39.21
			L83.16,39.21z"/>
		<path class="st2" d="M51.05,18.31l14.7,8.8l1.38-2.31c1.51-2.52,0.69-5.78-1.83-7.29l-5.58-3.34c-2.52-1.51-5.78-0.69-7.29,1.83
			L51.05,18.31z"/>
		<path class="st3" d="M55.24,19.45l7.63,4.4l0.74-1.28c0.81-1.4,0.33-3.19-1.07-3.99l-2.56-1.48c-1.4-0.81-3.19-0.33-3.99,1.07
			L55.24,19.45z"/>
	</g>
	<polygon class="st1" points="66.38,72.17 64.77,74.9 66.87,77.28 63.77,76.59 62.16,79.32 61.86,76.16 58.76,75.48 61.67,74.21 
		61.36,71.05 63.47,73.43 	"/>
</g>
</svg>
